<?xml version="1.0" standalone="no"?><!DOCTYPE svg PUBLIC "-//W3C//DTD SVG 1.1//EN" "http://www.w3.org/Graphics/SVG/1.1/DTD/svg11.dtd"><svg t="1705844460767" class="icon" viewBox="0 0 1024 1024" version="1.1" xmlns="http://www.w3.org/2000/svg" p-id="4325" width="32" height="32" xmlns:xlink="http://www.w3.org/1999/xlink"><path d="M420.096 90.24l180.032 0 0 663.552-180.032 0 0-663.552Z" fill="#8a8a8a" p-id="4326"></path><path d="M180.224 397.632l179.968 0 0 356.16-179.968 0 0-356.16Z" fill="#8a8a8a" p-id="4327"></path><path d="M660.032 278.656l180.032 0 0 475.2-180.032 0 0-475.2Z" fill="#8a8a8a" p-id="4328"></path><path d="M64 816.64l896 0 0 117.12-896 0 0-117.12Z" fill="#8a8a8a" p-id="4329"></path><path d="M485.76 159.616l114.368 0 0 594.24-114.368 0 0-594.24Z" fill="#8a8a8a" p-id="4330"></path><path d="M245.824 465.152l114.368 0 0 288.704-114.368 0 0-288.704Z" fill="#8a8a8a" p-id="4331"></path><path d="M725.696 341.44l114.368 0 0 412.352-114.368 0 0-412.352Z" fill="#8a8a8a" p-id="4332"></path><path d="M123.072 875.648l836.928 0 0 58.112-836.928 0 0-58.112Z" fill="#8a8a8a" p-id="4333"></path></svg>